<?xml version="1.0" encoding="UTF-8"?>
<svg width="199" height="217" viewBox="0 0 199 217" fill="none" xmlns="http://www.w3.org/2000/svg">
<g filter="url(#filter0_i_98_1282)">
<g clip-path="url(#clip0_98_1282)">
<path d="M43.0556 132.699C43.2265 132.56 59.9348 127.517 64.9121 125.307C69.8945 123.091 74.3176 142.443 70.2415 145.414C66.1603 148.386 45.6867 151.705 43.3353 149.629C40.9839 147.558 40.9839 134.356 43.0556 132.699Z" fill="#F6F6F6"></path>
<path d="M121.381 121.921C121.893 121.258 136.633 120.569 148.976 112.69C161.323 104.816 161.116 101.601 165.057 104.505C168.999 107.404 173.981 111.447 168.999 118.084C164.021 124.716 136.944 143.789 129.678 143.167C122.416 142.546 118.579 125.545 121.381 121.921Z" fill="#F6F6F6"></path>
<mask id="mask0_98_1282" style="mask-type:luminance" maskUnits="userSpaceOnUse" x="52" y="172" width="45" height="44">
<path d="M52.3711 172.294H96.1254V215.989H52.3711V172.294Z" fill="white"></path>
</mask>
<g mask="url(#mask0_98_1282)">
<path d="M93.7016 213.498C90.5734 216.724 57.654 216.154 55.1887 215.393C52.7234 214.637 52.1537 210.087 54.8106 205.251C57.4624 200.416 68.5667 198.428 68.5667 198.428C68.5667 198.428 68.95 189.264 69.2711 181.939C69.4783 177.186 69.6647 173.21 69.701 173.024L69.6078 172.646C69.6078 172.646 92.9455 179.847 93.0387 179.661C93.0749 179.588 93.1371 182.928 93.2044 187.126C93.308 194.074 93.422 203.356 93.422 203.356C93.422 203.356 96.8351 210.278 93.7068 213.498H93.7016Z" fill="#F6F6F6"></path>
</g>
<path d="M93.199 187.126C81.4369 186.81 73.8182 184.201 69.2656 181.939C69.4728 177.186 69.6592 173.21 69.6955 173.024L69.6023 172.646C69.6023 172.646 92.94 179.847 93.0332 179.661C93.0695 179.588 93.1316 182.928 93.199 187.126Z" fill="#54A3E6"></path>
<mask id="mask1_98_1282" style="mask-type:luminance" maskUnits="userSpaceOnUse" x="100" y="170" width="44" height="46">
<path d="M100.105 170.968H143.86V215.988H100.105V170.968Z" fill="white"></path>
</mask>
<g mask="url(#mask1_98_1282)">
<path d="M102.652 212.256C105.786 215.481 138.705 214.912 141.17 214.151C143.636 213.395 144.205 208.844 141.548 204.009C138.891 199.173 127.792 197.185 127.792 197.185C127.792 197.185 127.409 188.017 127.088 180.696C126.876 175.944 126.694 171.968 126.658 171.781L126.751 171.403C126.751 171.403 103.414 178.605 103.315 178.413C103.279 178.346 103.217 181.685 103.155 185.884C103.051 192.826 102.937 202.114 102.937 202.114C102.937 202.114 99.5239 209.03 102.652 212.256Z" fill="#F6F6F6"></path>
</g>
<path d="M103.059 187.747C114.821 187.432 122.439 184.822 126.992 182.56C126.78 177.807 126.598 173.831 126.562 173.645L126.655 173.267C126.655 173.267 103.318 180.468 103.219 180.282C103.188 180.21 103.126 183.554 103.059 187.747Z" fill="#54A3E6"></path>
<path d="M102.335 179.562C102.335 179.588 102.335 179.702 102.335 179.893C102.149 179.924 102.051 179.945 102.051 179.945L102.335 179.562Z" fill="#F6F6F6"></path>
<path d="M123.495 179.469C107.745 185.061 68.7551 185.822 62.0221 164.777C60.344 159.548 59.7018 153.781 59.6914 148.06C59.6914 147.154 59.7018 146.248 59.7328 145.342C60.2404 129.034 65.4093 113.818 65.8133 113.213L124.442 119.467C124.442 119.467 128.995 123.924 131.559 133.497C132.367 136.52 133.434 141.656 134.014 147.449C134.205 149.375 134.345 151.368 134.407 153.382C134.739 164.518 132.62 176.228 123.495 179.469Z" fill="#F6F6F6"></path>
<path d="M102.335 179.562C102.335 179.588 102.335 179.702 102.335 179.893C102.149 179.924 102.051 179.945 102.051 179.945L102.335 179.562Z" fill="#54A3E6"></path>
<path d="M134.407 153.382C127.975 155.396 84.0287 162.783 59.6914 148.06C59.6914 147.154 59.7018 146.248 59.7328 145.342C71.0392 148.334 108.035 158 134.122 148.567C134.314 150.488 134.345 151.368 134.407 153.382Z" fill="#54A3E6"></path>
<path d="M143.141 55.2552C142.913 55.2811 141.996 30.7986 141.996 30.7986L147.719 30.1256C147.719 30.1256 152.277 59.956 151.723 60.0751C151.169 60.189 143.141 55.2552 143.141 55.2552Z" fill="#F6F6F6"></path>
<mask id="mask2_98_1282" style="mask-type:luminance" maskUnits="userSpaceOnUse" x="138" y="21" width="13" height="11">
<path d="M138.555 21.1638H150.488V31.8079H138.555V21.1638Z" fill="white"></path>
</mask>
<g mask="url(#mask2_98_1282)">
<path d="M149.381 26.3306C149.381 27.0139 149.251 27.6714 148.987 28.3082C148.728 28.9398 148.355 29.4989 147.868 29.9804C147.382 30.4671 146.827 30.8398 146.19 31.1038C145.558 31.3627 144.901 31.4973 144.212 31.4973C143.528 31.4973 142.87 31.3627 142.233 31.1038C141.602 30.8398 141.042 30.4671 140.56 29.9804C140.074 29.4989 139.701 28.9398 139.437 28.3082C139.178 27.6714 139.043 27.0139 139.043 26.3306C139.043 25.6472 139.178 24.9845 139.437 24.3529C139.701 23.7213 140.074 23.1622 140.56 22.6755C141.042 22.1941 141.602 21.8213 142.233 21.5573C142.87 21.2932 143.528 21.1638 144.212 21.1638C144.901 21.1638 145.558 21.2932 146.19 21.5573C146.827 21.8213 147.382 22.1941 147.868 22.6755C148.355 23.1622 148.728 23.7213 148.987 24.3529C149.251 24.9845 149.381 25.6472 149.381 26.3306Z" fill="#F6F6F6"></path>
</g>
<path d="M149.92 89.8693L147.542 90.2472C141.995 91.1222 136.785 87.3377 135.91 81.793L132.947 63.0623C132.067 57.5176 135.858 52.3146 141.405 51.4397L143.782 51.0618C149.329 50.1868 154.534 53.9713 155.415 59.5108L158.377 78.2467C159.253 83.7914 155.467 88.9944 149.92 89.8693Z" fill="#54A3E6"></path>
<path d="M31.527 72.0135C31.7445 71.9617 24.3123 48.613 24.3123 48.613L18.7031 49.9177C18.7031 49.9177 24.5142 79.5255 25.0788 79.4478C25.6433 79.3702 31.527 72.0135 31.527 72.0135Z" fill="#F6F6F6"></path>
<path d="M25.8847 45.1598C25.8847 45.8432 25.75 46.5007 25.491 47.1374C25.2269 47.769 24.854 48.3282 24.3671 48.8096C23.8855 49.2963 23.3261 49.669 22.6942 49.9331C22.0572 50.1919 21.3994 50.3265 20.7158 50.3265C20.0269 50.3265 19.3692 50.1919 18.7373 49.9331C18.1002 49.669 17.5409 49.2963 17.0592 48.8096C16.5724 48.3282 16.1995 47.769 15.9405 47.1374C15.6764 46.5007 15.5469 45.8432 15.5469 45.1598C15.5469 44.4764 15.6764 43.8137 15.9405 43.1821C16.1995 42.5505 16.5724 41.9914 17.0592 41.5048C17.5409 41.0233 18.1002 40.6505 18.7373 40.3865C19.3692 40.1225 20.0269 39.993 20.7158 39.993C21.3994 39.993 22.0572 40.1225 22.6942 40.3865C23.3261 40.6505 23.8855 41.0233 24.3671 41.5048C24.854 41.9914 25.2269 42.5505 25.491 43.1821C25.75 43.8137 25.8847 44.4764 25.8847 45.1598Z" fill="#F6F6F6"></path>
<path d="M36.8789 106.876L39.2406 106.426C44.7617 105.369 48.3768 100.047 47.3255 94.539L43.7673 75.9066C42.7107 70.393 37.3865 66.7794 31.8706 67.8303L29.5037 68.2807C23.9877 69.3317 20.3726 74.6537 21.424 80.1673L24.9822 98.7997C26.0387 104.313 31.363 107.927 36.8789 106.876Z" fill="#54A3E6"></path>
<path d="M148.224 71.6873C153.222 101.129 130.93 124.214 99.1193 129.603C67.3135 134.988 38.03 120.637 33.0372 91.1997C28.0392 61.7628 36.3519 31.0367 81.0385 22.9967C125.974 14.91 143.231 42.2503 148.224 71.6873Z" fill="#F6F6F6"></path>
<path d="M65.1007 49.8865C65.1007 49.8865 45.865 54.2197 44.5494 71.6147C43.3116 88.0158 46.3104 114.88 78.6237 118.084C110.937 121.289 134.109 105.633 137.139 84.4177C140.164 63.202 130.768 46.19 118.4 43.881C101.392 40.7075 65.1007 49.8865 65.1007 49.8865Z" fill="#160E0B"></path>
<path d="M77.3073 91.3551C77.763 91.1894 81.8443 93.6123 92.2183 92.2663C102.188 90.972 105.239 86.8458 106.394 87.7104C108.02 88.9219 103.768 102.186 92.5187 102.859C81.2694 103.532 74.3085 92.4319 77.3073 91.3551Z" fill="#54A3E6"></path>
<path d="M121.002 71.0142C121.069 71.6613 121.095 72.3085 121.074 72.9556C121.048 73.5976 120.981 74.2344 120.872 74.8504C120.758 75.4665 120.603 76.0619 120.401 76.6262C120.204 77.1957 119.966 77.7237 119.686 78.2207C119.412 78.7126 119.096 79.1578 118.754 79.5616C118.407 79.9602 118.034 80.3123 117.63 80.6022C117.231 80.8973 116.812 81.1303 116.371 81.3063C115.931 81.4823 115.481 81.5962 115.02 81.6428C114.559 81.6946 114.093 81.679 113.626 81.6014C113.155 81.5237 112.699 81.3839 112.244 81.182C111.788 80.9801 111.353 80.7161 110.928 80.4003C110.503 80.0793 110.105 79.7066 109.732 79.282C109.354 78.8575 109.007 78.3916 108.696 77.879C108.38 77.3665 108.1 76.8229 107.862 76.2431C107.619 75.6632 107.422 75.0575 107.261 74.4311C107.101 73.8047 106.987 73.1679 106.919 72.5207C106.852 71.8684 106.826 71.2213 106.847 70.5793C106.873 69.9322 106.94 69.3006 107.049 68.6793C107.163 68.0633 107.318 67.4679 107.52 66.9036C107.717 66.3341 107.955 65.806 108.235 65.3142C108.509 64.8172 108.825 64.372 109.167 63.9682C109.514 63.5695 109.887 63.2227 110.286 62.9276C110.69 62.6325 111.109 62.3995 111.55 62.2235C111.99 62.0475 112.44 61.9388 112.901 61.887C113.362 61.8352 113.828 61.8507 114.295 61.9284C114.761 62.0061 115.222 62.1458 115.677 62.3529C116.128 62.5548 116.568 62.8137 116.993 63.1347C117.412 63.4505 117.816 63.8232 118.189 64.2477C118.567 64.6723 118.914 65.1382 119.225 65.6507C119.541 66.1633 119.821 66.7069 120.059 67.2919C120.303 67.8717 120.499 68.4722 120.66 69.0987C120.815 69.7251 120.929 70.3619 121.002 71.0142Z" fill="#54A3E6"></path>
<path d="M74.4548 77.8066C74.5222 78.459 74.5481 79.1061 74.5273 79.748C74.5014 80.3952 74.4341 81.0268 74.3253 81.648C74.2114 82.2641 74.056 82.8543 73.854 83.4238C73.6572 83.9881 73.419 84.5213 73.1393 85.0132C72.8648 85.5102 72.5489 85.9554 72.207 86.3592C71.86 86.7578 71.4871 87.1047 71.0831 87.3998C70.6843 87.6949 70.2648 87.9279 69.8246 88.1039C69.3843 88.2799 68.9337 88.3886 68.4728 88.4404C68.0118 88.4922 67.5457 88.4766 67.0796 88.399C66.6134 88.3213 66.1525 88.1764 65.6967 87.9745C65.2409 87.7725 64.8059 87.5137 64.3812 87.1927C63.9565 86.8769 63.5577 86.5042 63.1848 86.0796C62.8067 85.6551 62.4597 85.1892 62.1489 84.6766C61.833 84.1641 61.5533 83.6153 61.3151 83.0355C61.0716 82.4557 60.8748 81.8551 60.7143 81.2287C60.5537 80.6023 60.4398 79.9655 60.3724 79.3132C60.3051 78.666 60.2792 78.0189 60.2999 77.3718C60.3258 76.7246 60.3932 76.093 60.5019 75.4769C60.6159 74.8609 60.7712 74.2655 60.9732 73.7012C61.17 73.1317 61.4083 72.6037 61.688 72.1067C61.9625 71.6148 62.2784 71.1696 62.6202 70.7658C62.9672 70.362 63.3402 70.0151 63.739 69.7252C64.1429 69.4301 64.5625 69.1919 65.0027 69.0211C65.4429 68.8451 65.8935 68.7312 66.3545 68.6846C66.8154 68.6328 67.2816 68.6483 67.7477 68.726C68.2138 68.8037 68.6748 68.9434 69.1306 69.1454C69.5863 69.3473 70.0214 69.6113 70.4461 69.9271C70.8708 70.2481 71.2696 70.6208 71.6425 71.0453C72.0206 71.4647 72.3676 71.9358 72.6783 72.4483C72.9943 72.9609 73.274 73.5045 73.5122 74.0843C73.7556 74.6641 73.9524 75.2699 74.113 75.8963C74.2684 76.5227 74.3823 77.1595 74.4548 77.8066Z" fill="#54A3E6"></path>
<mask id="mask3_98_1282" style="mask-type:luminance" maskUnits="userSpaceOnUse" x="135" y="103" width="64" height="57">
<path d="M135.902 103.376H198.882V159.04H135.902V103.376Z" fill="white"></path>
</mask>
<g mask="url(#mask3_98_1282)">
<path d="M141.42 104.091H194.611C195.176 104.091 195.719 104.194 196.242 104.412C196.766 104.629 197.226 104.94 197.63 105.338C198.029 105.737 198.34 106.198 198.552 106.721C198.77 107.244 198.879 107.787 198.879 108.357V153.724C198.879 154.293 198.77 154.837 198.552 155.359C198.34 155.882 198.029 156.343 197.63 156.742C197.226 157.146 196.766 157.451 196.242 157.668C195.719 157.886 195.176 157.995 194.611 157.995H141.42C140.856 157.995 140.312 157.886 139.789 157.668C139.265 157.451 138.799 157.146 138.401 156.742C138.002 156.343 137.691 155.882 137.473 155.359C137.261 154.837 137.152 154.293 137.152 153.724V108.357C137.152 107.787 137.261 107.244 137.473 106.721C137.691 106.198 138.002 105.737 138.401 105.338C138.799 104.94 139.265 104.629 139.789 104.412C140.312 104.194 140.856 104.091 141.42 104.091Z" fill="#54A3E6"></path>
</g>
<path d="M144.992 107.197H191.056C191.626 107.197 192.169 107.306 192.693 107.523C193.216 107.741 193.677 108.046 194.075 108.45C194.479 108.849 194.785 109.309 195.002 109.832C195.22 110.355 195.329 110.899 195.329 111.463V150.617C195.329 151.182 195.22 151.725 195.002 152.248C194.785 152.771 194.479 153.232 194.075 153.63C193.677 154.034 193.216 154.34 192.693 154.557C192.169 154.775 191.626 154.883 191.056 154.883H144.992C144.427 154.883 143.878 154.775 143.355 154.557C142.832 154.34 142.371 154.034 141.972 153.63C141.573 153.232 141.263 152.771 141.045 152.248C140.828 151.725 140.719 151.182 140.719 150.617V111.463C140.719 110.899 140.828 110.355 141.045 109.832C141.263 109.309 141.573 108.849 141.972 108.45C142.371 108.046 142.832 107.741 143.355 107.523C143.878 107.306 144.427 107.197 144.992 107.197Z" fill="#F6F6F6"></path>
<path d="M160.602 99.0069C161.047 98.893 176.994 97.1431 178.548 100.979C180.107 104.816 176.896 111.546 167.967 110.93C161.948 110.516 155.764 107.87 156.241 103.464C156.66 99.6333 158.214 99.6333 160.602 99.0069Z" fill="#F6F6F6"></path>
<path d="M160.602 99.0069C161.047 98.893 176.994 97.1431 178.548 100.979C180.107 104.816 176.896 111.546 167.967 110.93C161.948 110.516 155.764 107.87 156.241 103.464C156.66 99.6333 158.214 99.6333 160.602 99.0069Z" fill="#F6F6F6"></path>
<path d="M169.334 111.463C168.878 111.463 168.412 111.447 167.93 111.416C164.139 111.152 159.266 109.894 156.961 107.145C156.018 106.022 155.614 104.764 155.759 103.413C155.785 103.149 156.029 102.952 156.298 102.983C156.562 103.009 156.759 103.252 156.728 103.516C156.609 104.593 156.94 105.603 157.712 106.524C158.597 107.58 160.068 108.507 161.964 109.206C163.761 109.868 165.848 110.298 167.998 110.443C168.474 110.479 168.93 110.49 169.365 110.49C174.223 110.49 176.404 108.543 177.3 107.311C178.351 105.861 178.6 104.049 177.958 102.476C177.859 102.222 177.978 101.942 178.227 101.839C178.475 101.74 178.76 101.859 178.864 102.108C179.63 103.998 179.34 106.156 178.087 107.886C177.217 109.082 175.912 110.034 174.311 110.64C172.866 111.189 171.199 111.463 169.334 111.463Z" fill="#160E0B"></path>
<mask id="mask4_98_1282" style="mask-type:luminance" maskUnits="userSpaceOnUse" x="0" y="66" width="73" height="119">
<path d="M0 66.2668H72.2609V184.222H0V66.2668Z" fill="white"></path>
</mask>
<g mask="url(#mask4_98_1282)">
<path d="M16.7031 66.5619L0 74.1308C0 74.1308 54.6774 182.871 55.0917 183.388L70.9661 175.41L16.7031 66.5619ZM12.5027 79.9343C10.6434 79.9343 9.13102 78.4278 9.13102 76.564C9.13102 74.7055 10.6434 73.1938 12.5027 73.1938C14.3672 73.1938 15.8744 74.7055 15.8744 76.564C15.8744 78.4278 14.3672 79.9343 12.5027 79.9343Z" fill="#54A3E6"></path>
</g>
<path d="M27.8058 137.674C28.0752 137.328 32.2652 133.113 37.3512 134.563C42.4321 136.018 48.7611 147.625 46.0627 152.704C43.3643 157.787 37.662 158.305 34.0313 155.608C30.3955 152.916 24.9003 141.407 27.8058 137.674Z" fill="#F6F6F6"></path>
<path d="M21.4914 75.7046C23.4181 79.5719 25.3137 83.4599 27.1938 87.3479C29.0739 91.2411 30.9384 95.1446 32.7977 99.0482C33.844 101.243 34.8902 103.449 35.9312 105.649C36.0969 105.991 36.6097 105.69 36.4439 105.349C34.5949 101.445 32.7408 97.5365 30.8762 93.6381C29.0065 89.7398 27.1316 85.8466 25.236 81.9586C24.1639 79.7687 23.0866 77.5839 22.0042 75.4044C21.8333 75.0627 21.3205 75.363 21.4914 75.7046Z" fill="#160E0B"></path>
<mask id="mask5_98_1282" style="mask-type:luminance" maskUnits="userSpaceOnUse" x="114" y="127" width="6" height="6">
<path d="M114.691 127.507H119.995V132.534H114.691V127.507Z" fill="white"></path>
</mask>
<g mask="url(#mask5_98_1282)">
<path d="M115.758 131.788V127.517H118.746C118.746 127.517 118.788 129.515 118.021 130.323C117.26 131.126 115.758 131.788 115.758 131.788Z" fill="#1F2B5B"></path>
</g>
<mask id="mask6_98_1282" style="mask-type:luminance" maskUnits="userSpaceOnUse" x="110" y="127" width="10" height="10">
<path d="M110.777 127.507H119.986V136.51H110.777V127.507Z" fill="white"></path>
</mask>
<g mask="url(#mask6_98_1282)">
<mask id="mask7_98_1282" style="mask-type:luminance" maskUnits="userSpaceOnUse" x="110" y="127" width="9" height="9">
<path d="M118.733 127.678C118.738 128.206 118.676 129.95 117.816 131.654C117.541 132.192 117.194 132.725 116.744 133.212C115.573 134.48 113.714 135.454 110.777 135.454V132.477C112.942 132.477 114.522 132.145 115.672 131.654C116.081 131.478 116.438 131.286 116.744 131.079C118.551 129.852 118.722 128.195 118.733 127.678Z" fill="white"></path>
</mask>
<g mask="url(#mask7_98_1282)">
<path d="M110.777 127.678V135.454H118.738V127.678H110.777Z" fill="url(#paint0_linear_98_1282)"></path>
</g>
</g>
<mask id="mask8_98_1282" style="mask-type:luminance" maskUnits="userSpaceOnUse" x="114" y="133" width="6" height="7">
<path d="M114.691 133.859H119.995V139.435H114.691V133.859Z" fill="white"></path>
</mask>
<g mask="url(#mask8_98_1282)">
<path d="M118.741 135.153V139.419H115.758C115.758 139.419 115.717 137.421 116.478 136.618C117.245 135.811 118.741 135.153 118.741 135.153Z" fill="#1F2B5B"></path>
</g>
<mask id="mask9_98_1282" style="mask-type:luminance" maskUnits="userSpaceOnUse" x="114" y="131" width="10" height="9">
<path d="M114.691 131.208H123.714V139.435H114.691V131.208Z" fill="white"></path>
</mask>
<g mask="url(#mask9_98_1282)">
<mask id="mask10_98_1282" style="mask-type:luminance" maskUnits="userSpaceOnUse" x="115" y="131" width="9" height="9">
<path d="M115.758 139.259C115.753 138.731 115.815 136.986 116.675 135.283C116.944 134.749 117.291 134.216 117.747 133.73C118.917 132.461 120.772 131.488 123.713 131.488V134.46C121.543 134.46 119.964 134.791 118.819 135.283C118.41 135.459 118.052 135.655 117.747 135.863C115.934 137.084 115.763 138.746 115.758 139.259Z" fill="white"></path>
</mask>
<g mask="url(#mask10_98_1282)">
<path d="M123.711 139.259V131.488H115.75V139.259H123.711Z" fill="url(#paint1_linear_98_1282)"></path>
</g>
</g>
<mask id="mask11_98_1282" style="mask-type:luminance" maskUnits="userSpaceOnUse" x="59" y="0" width="48" height="20">
<path d="M59.0039 0H106.736V19.8801H59.0039V0Z" fill="white"></path>
</mask>
<g mask="url(#mask11_98_1282)">
<mask id="mask12_98_1282" style="mask-type:luminance" maskUnits="userSpaceOnUse" x="51" y="-3" width="67" height="48">
<path d="M51.4414 8.29887L111.2 -2.12781L117.523 34.1015L57.7705 44.5282L51.4414 8.29887Z" fill="white"></path>
</mask>
<g mask="url(#mask12_98_1282)">
<mask id="mask13_98_1282" style="mask-type:luminance" maskUnits="userSpaceOnUse" x="51" y="-3" width="67" height="48">
<path d="M51.4414 8.29887L111.2 -2.12781L117.523 34.1015L57.7705 44.5282L51.4414 8.29887Z" fill="white"></path>
</mask>
<g mask="url(#mask13_98_1282)">
<path d="M106.201 10.0952C106.278 10.5404 106.325 10.9805 106.351 11.4205C105.113 10.8148 103.813 10.3385 102.477 10.0072C95.7851 8.32978 89.021 8.06575 82.3915 9.22542C75.7517 10.3851 69.4797 12.9219 63.7514 16.7633C62.6068 17.5295 61.545 18.4199 60.5869 19.4036C60.4574 18.9843 60.359 18.5494 60.2813 18.1093C59.2196 12.0314 63.3008 6.2227 69.3813 5.1614L93.2473 0.999011C99.3277 -0.0622934 105.139 4.01726 106.201 10.0952Z" fill="#002D75"></path>
</g>
</g>
</g>
<mask id="mask14_98_1282" style="mask-type:luminance" maskUnits="userSpaceOnUse" x="60" y="9" width="49" height="21">
<path d="M60.3281 9.27734H108.06V29.1574H60.3281V9.27734Z" fill="white"></path>
</mask>
<g mask="url(#mask14_98_1282)">
<mask id="mask15_98_1282" style="mask-type:luminance" maskUnits="userSpaceOnUse" x="51" y="-3" width="67" height="48">
<path d="M51.4414 8.29887L111.2 -2.12781L117.523 34.1015L57.7705 44.5282L51.4414 8.29887Z" fill="white"></path>
</mask>
<g mask="url(#mask15_98_1282)">
<mask id="mask16_98_1282" style="mask-type:luminance" maskUnits="userSpaceOnUse" x="51" y="-3" width="67" height="48">
<path d="M51.4414 8.29887L111.2 -2.12781L117.523 34.1015L57.7705 44.5282L51.4414 8.29887Z" fill="white"></path>
</mask>
<g mask="url(#mask16_98_1282)">
<path d="M106.293 13.2688C105.019 12.5854 103.61 12.0263 102.067 11.638C95.6033 10.0227 89.0774 9.76906 82.6811 10.8873C76.2795 12.0004 70.225 14.4492 64.6883 18.1611C63.3728 19.0464 62.2334 20.0508 61.2649 21.1276C61.0577 21.3502 60.8557 21.5832 60.6641 21.8162C63.0362 26.3047 68.1066 28.9606 73.3791 28.039L82.8934 26.3824L82.6759 25.1295L79.6616 25.6524C78.4341 25.8698 77.2532 24.9587 77.0201 23.6282C76.7871 22.2925 77.5899 21.0396 78.8173 20.8273L81.8317 20.2993L81.3086 17.2862C81.091 16.0592 82.0026 14.8789 83.3337 14.6459C84.6647 14.4129 85.9233 15.2154 86.1356 16.4423L86.6639 19.4554L89.6782 18.9274C90.9057 18.7151 92.0866 19.6211 92.3197 20.9568C92.5527 22.2873 91.7448 23.5453 90.5225 23.7576L87.5081 24.2856L87.7257 25.5385L97.2399 23.8767C102.512 22.9551 106.381 18.741 107.091 13.714C106.832 13.5587 106.568 13.4086 106.293 13.2688Z" fill="#002D75"></path>
</g>
</g>
</g>
<mask id="mask17_98_1282" style="mask-type:luminance" maskUnits="userSpaceOnUse" x="59" y="13" width="50" height="17">
<path d="M59.0039 13.2533H108.062V29.1573H59.0039V13.2533Z" fill="white"></path>
</mask>
<g mask="url(#mask17_98_1282)">
<mask id="mask18_98_1282" style="mask-type:luminance" maskUnits="userSpaceOnUse" x="51" y="-3" width="67" height="48">
<path d="M51.4414 8.29887L111.2 -2.12781L117.523 34.1015L57.7705 44.5282L51.4414 8.29887Z" fill="white"></path>
</mask>
<g mask="url(#mask18_98_1282)">
<mask id="mask19_98_1282" style="mask-type:luminance" maskUnits="userSpaceOnUse" x="51" y="-3" width="67" height="48">
<path d="M51.4414 8.29887L111.2 -2.12781L117.523 34.1015L57.7705 44.5282L51.4414 8.29887Z" fill="white"></path>
</mask>
<g mask="url(#mask19_98_1282)">
<path d="M107.092 13.714C106.833 13.5587 106.569 13.4086 106.294 13.2688C105.755 18.0783 102.104 22.1734 97.0957 23.0483L87.5814 24.705L87.8714 26.3669L97.3857 24.705C102.886 23.7472 106.967 19.414 107.869 14.2059C107.615 14.035 107.356 13.8745 107.092 13.714ZM73.2297 27.2107C68.2265 28.0857 63.3995 25.466 61.2656 21.1276C61.0533 21.3502 60.8565 21.5832 60.6648 21.8162C60.468 22.0543 60.2816 22.2925 60.1055 22.5358C62.7158 27.1331 68.0245 29.8303 73.5197 28.8726L83.0392 27.2107L82.7492 25.5489L73.2297 27.2107Z" fill="white"></path>
</g>
</g>
</g>
<mask id="mask20_98_1282" style="mask-type:luminance" maskUnits="userSpaceOnUse" x="56" y="9" width="61" height="34">
<path d="M56.3477 9.27734H116.013V42.4108H56.3477V9.27734Z" fill="white"></path>
</mask>
<g mask="url(#mask20_98_1282)">
<mask id="mask21_98_1282" style="mask-type:luminance" maskUnits="userSpaceOnUse" x="51" y="-3" width="67" height="48">
<path d="M51.4414 8.29887L111.2 -2.12781L117.523 34.1015L57.7705 44.5282L51.4414 8.29887Z" fill="white"></path>
</mask>
<g mask="url(#mask21_98_1282)">
<mask id="mask22_98_1282" style="mask-type:luminance" maskUnits="userSpaceOnUse" x="51" y="-3" width="67" height="48">
<path d="M51.4414 8.29887L111.2 -2.12781L117.523 34.1015L57.7705 44.5282L51.4414 8.29887Z" fill="white"></path>
</mask>
<g mask="url(#mask22_98_1282)">
<path d="M114.524 21.9663C113.38 19.3674 111.153 16.3906 107.864 14.2058C107.61 14.035 107.351 13.8745 107.087 13.714C106.828 13.5587 106.564 13.4086 106.289 13.2688C105.015 12.5854 103.606 12.0263 102.063 11.638C95.5993 10.0227 89.0734 9.76906 82.6771 10.8873C76.2755 12.0056 70.221 14.4492 64.6843 18.1611C63.3688 19.0464 62.2294 20.0508 61.2608 21.1276C61.0537 21.3502 60.8517 21.5832 60.6601 21.8162C60.4632 22.0543 60.282 22.2925 60.1007 22.5358C57.7493 25.7093 56.6565 29.2608 56.4597 32.0927C56.2214 35.4992 57.1174 38.3829 58.9146 39.993C59.935 40.93 61.0226 41.5772 62.1154 42.0068C62.3899 42.0017 63.0373 41.981 63.9178 41.8878H63.923C64.4202 41.836 64.9951 41.7635 65.6218 41.6496C68.7656 41.1009 73.168 39.7082 75.5297 36.1671C75.7472 35.8358 75.9492 35.4889 76.1357 35.1213C76.3428 34.7071 76.8452 34.5363 77.2647 34.7434C77.6791 34.9505 77.85 35.4526 77.648 35.872C75.9958 39.2112 73.0126 41.1267 70.0863 42.2243C71.8731 41.7428 73.6548 40.9507 75.3173 39.8946C78.8755 37.5131 82.7806 35.9289 86.9189 35.2093C91.0571 34.4845 95.273 34.6502 99.4475 35.696C101.856 36.2344 104.332 36.3172 106.579 35.9238C109.257 35.4526 112.872 34.0911 114.887 30.2341C116.037 28.1012 115.902 25.0881 114.524 21.9663ZM80.248 32.2998C79.6213 33.1903 78.3886 33.4077 77.4926 32.7813C76.6018 32.1497 76.3843 30.9227 77.0161 30.027C77.6428 29.1366 78.8755 28.9243 79.7663 29.5508C80.6572 30.1772 80.8747 31.4093 80.248 32.2998ZM88.0272 27.2987C88.2448 28.5257 87.3332 29.7061 85.997 29.939C84.6659 30.172 83.4125 29.3696 83.2002 28.1426L82.6719 25.1295L79.6576 25.6524C78.4301 25.8698 77.2492 24.9587 77.0161 23.6282C76.7831 22.2925 77.5859 21.0396 78.8133 20.8273L81.8277 20.2993L81.3046 17.2862C81.087 16.0592 81.9986 14.8789 83.3296 14.6459C84.6607 14.4129 85.9193 15.2154 86.1316 16.4423L86.6599 19.4554L89.6742 18.9325C90.9017 18.7151 92.0826 19.6211 92.3157 20.9568C92.5487 22.2873 91.7408 23.5453 90.5185 23.7576L87.5041 24.2856L88.0272 27.2987Z" fill="#002D75"></path>
<path d="M114.524 21.9663C113.38 19.3674 111.153 16.3906 107.864 14.2058C107.61 14.035 107.351 13.8745 107.087 13.714C106.828 13.5587 106.564 13.4086 106.289 13.2688C105.015 12.5854 103.606 12.0263 102.063 11.638C95.5993 10.0227 89.0734 9.76906 82.6771 10.8873C76.2755 12.0056 70.221 14.4492 64.6843 18.1611C63.3688 19.0464 62.2294 20.0508 61.2608 21.1276C61.0537 21.3502 60.8517 21.5832 60.6601 21.8162C60.4632 22.0543 60.282 22.2925 60.1007 22.5358C57.7493 25.7093 56.6565 29.2608 56.4597 32.0927C56.2214 35.4992 57.1174 38.3829 58.9146 39.993C59.935 40.93 61.0226 41.5772 62.1154 42.0068C62.3899 42.0017 63.0373 41.981 63.9178 41.8878H63.923C64.4202 41.836 64.9951 41.7635 65.6218 41.6496C68.7656 41.1009 73.168 39.7082 75.5297 36.1671C75.7472 35.8358 75.9492 35.4889 76.1357 35.1213C76.3428 34.7071 76.8452 34.5363 77.2647 34.7434C77.6791 34.9505 77.85 35.4526 77.648 35.872C75.9958 39.2112 73.0126 41.1267 70.0863 42.2243C71.8731 41.7428 73.6548 40.9507 75.3173 39.8946C78.8755 37.5131 82.7806 35.9289 86.9189 35.2093C91.0571 34.4845 95.273 34.6502 99.4475 35.696C101.856 36.2344 104.332 36.3172 106.579 35.9238C109.257 35.4526 112.872 34.0911 114.887 30.2341C116.037 28.1012 115.902 25.0881 114.524 21.9663ZM80.248 32.2998C79.6213 33.1903 78.3886 33.4077 77.4926 32.7813C76.6018 32.1497 76.3843 30.9227 77.0161 30.027C77.6428 29.1366 78.8755 28.9243 79.7663 29.5508C80.6572 30.1772 80.8747 31.4093 80.248 32.2998ZM88.0272 27.2987C88.2448 28.5257 87.3332 29.7061 85.997 29.939C84.6659 30.172 83.4125 29.3696 83.2002 28.1426L82.6719 25.1295L79.6576 25.6524C78.4301 25.8698 77.2492 24.9587 77.0161 23.6282C76.7831 22.2925 77.5859 21.0396 78.8133 20.8273L81.8277 20.2993L81.3046 17.2862C81.087 16.0592 81.9986 14.8789 83.3296 14.6459C84.6607 14.4129 85.9193 15.2154 86.1316 16.4423L86.6599 19.4554L89.6742 18.9325C90.9017 18.7151 92.0826 19.6211 92.3157 20.9568C92.5487 22.2873 91.7408 23.5453 90.5185 23.7576L87.5041 24.2856L88.0272 27.2987Z" fill="#002D75"></path>
</g>
</g>
</g>
<mask id="mask23_98_1282" style="mask-type:luminance" maskUnits="userSpaceOnUse" x="62" y="35" width="15" height="8">
<path d="M62.9805 35.7841H76.2394V42.4107H62.9805V35.7841Z" fill="white"></path>
</mask>
<g mask="url(#mask23_98_1282)">
<mask id="mask24_98_1282" style="mask-type:luminance" maskUnits="userSpaceOnUse" x="51" y="-3" width="67" height="48">
<path d="M51.4414 8.29887L111.2 -2.12781L117.523 34.1015L57.7705 44.5282L51.4414 8.29887Z" fill="white"></path>
</mask>
<g mask="url(#mask24_98_1282)">
<mask id="mask25_98_1282" style="mask-type:luminance" maskUnits="userSpaceOnUse" x="51" y="-3" width="67" height="48">
<path d="M51.4414 8.29887L111.2 -2.12781L117.523 34.1015L57.7705 44.5282L51.4414 8.29887Z" fill="white"></path>
</mask>
<g mask="url(#mask25_98_1282)">
<path d="M75.5325 36.1672C73.1707 39.7084 68.7684 41.101 65.6194 41.6498C64.9979 41.7585 64.423 41.8362 63.9258 41.8879L75.5325 36.1672Z" fill="#002D75"></path>
</g>
</g>
</g>
</g>
</g>
<defs>
<filter id="filter0_i_98_1282" x="0" y="0" width="198.844" height="222.933" filterUnits="userSpaceOnUse" color-interpolation-filters="sRGB">
<feFlood flood-opacity="0" result="BackgroundImageFix"></feFlood>
<feBlend mode="normal" in="SourceGraphic" in2="BackgroundImageFix" result="shape"></feBlend>
<feColorMatrix in="SourceAlpha" type="matrix" values="0 0 0 0 0 0 0 0 0 0 0 0 0 0 0 0 0 0 127 0" result="hardAlpha"></feColorMatrix>
<feOffset dy="6.85809"></feOffset>
<feGaussianBlur stdDeviation="3.42905"></feGaussianBlur>
<feComposite in2="hardAlpha" operator="arithmetic" k2="-1" k3="1"></feComposite>
<feColorMatrix type="matrix" values="0 0 0 0 0 0 0 0 0 0 0 0 0 0 0 0 0 0 0.25 0"></feColorMatrix>
<feBlend mode="normal" in2="shape" result="effect1_innerShadow_98_1282"></feBlend>
</filter>
<linearGradient id="paint0_linear_98_1282" x1="110.777" y1="131.567" x2="118.736" y2="131.567" gradientUnits="userSpaceOnUse">
<stop stop-color="#3DBDEC"></stop>
<stop offset="0.03125" stop-color="#3DBDEC"></stop>
<stop offset="0.046875" stop-color="#3DBDEC"></stop>
<stop offset="0.0546875" stop-color="#3DBCEC"></stop>
<stop offset="0.0625" stop-color="#3DBCEC"></stop>
<stop offset="0.078125" stop-color="#3EBBED"></stop>
<stop offset="0.0859375" stop-color="#3EBAED"></stop>
<stop offset="0.09375" stop-color="#3EBAED"></stop>
<stop offset="0.101562" stop-color="#3EB9ED"></stop>
<stop offset="0.109375" stop-color="#3EB9ED"></stop>
<stop offset="0.117188" stop-color="#3EB8ED"></stop>
<stop offset="0.125" stop-color="#3FB8ED"></stop>
<stop offset="0.132813" stop-color="#3FB7EE"></stop>
<stop offset="0.140625" stop-color="#3FB7EE"></stop>
<stop offset="0.148438" stop-color="#3FB6EE"></stop>
<stop offset="0.15625" stop-color="#3FB6EE"></stop>
<stop offset="0.164062" stop-color="#3FB5EE"></stop>
<stop offset="0.171875" stop-color="#40B5EE"></stop>
<stop offset="0.179688" stop-color="#40B4EE"></stop>
<stop offset="0.1875" stop-color="#40B4EF"></stop>
<stop offset="0.203125" stop-color="#40B3EF"></stop>
<stop offset="0.210938" stop-color="#40B2EF"></stop>
<stop offset="0.21875" stop-color="#41B2EF"></stop>
<stop offset="0.226563" stop-color="#41B1EF"></stop>
<stop offset="0.234375" stop-color="#41B1EF"></stop>
<stop offset="0.242187" stop-color="#41B0F0"></stop>
<stop offset="0.25" stop-color="#41B0F0"></stop>
<stop offset="0.257812" stop-color="#41AFF0"></stop>
<stop offset="0.265625" stop-color="#41AFF0"></stop>
<stop offset="0.273438" stop-color="#42AEF0"></stop>
<stop offset="0.28125" stop-color="#42AEF0"></stop>
<stop offset="0.289062" stop-color="#42ADF0"></stop>
<stop offset="0.296875" stop-color="#42ADF1"></stop>
<stop offset="0.3125" stop-color="#42ACF1"></stop>
<stop offset="0.320313" stop-color="#43ABF1"></stop>
<stop offset="0.328125" stop-color="#43ABF1"></stop>
<stop offset="0.335937" stop-color="#43AAF1"></stop>
<stop offset="0.34375" stop-color="#43AAF1"></stop>
<stop offset="0.351562" stop-color="#43A9F2"></stop>
<stop offset="0.359375" stop-color="#43A9F2"></stop>
<stop offset="0.367188" stop-color="#43A8F2"></stop>
<stop offset="0.375" stop-color="#44A8F2"></stop>
<stop offset="0.382812" stop-color="#44A7F2"></stop>
<stop offset="0.390625" stop-color="#44A7F2"></stop>
<stop offset="0.398438" stop-color="#44A6F2"></stop>
<stop offset="0.40625" stop-color="#44A6F2"></stop>
<stop offset="0.421875" stop-color="#44A5F3"></stop>
<stop offset="0.429687" stop-color="#45A4F3"></stop>
<stop offset="0.4375" stop-color="#45A4F3"></stop>
<stop offset="0.445312" stop-color="#45A3F3"></stop>
<stop offset="0.453125" stop-color="#45A3F3"></stop>
<stop offset="0.460938" stop-color="#45A2F3"></stop>
<stop offset="0.46875" stop-color="#45A2F4"></stop>
<stop offset="0.476562" stop-color="#46A1F4"></stop>
<stop offset="0.484375" stop-color="#46A1F4"></stop>
<stop offset="0.492188" stop-color="#46A0F4"></stop>
<stop offset="0.5" stop-color="#46A0F4"></stop>
<stop offset="0.507812" stop-color="#469FF4"></stop>
<stop offset="0.515625" stop-color="#469FF4"></stop>
<stop offset="0.523438" stop-color="#479EF5"></stop>
<stop offset="0.53125" stop-color="#479EF5"></stop>
<stop offset="0.546875" stop-color="#479DF5"></stop>
<stop offset="0.554688" stop-color="#479CF5"></stop>
<stop offset="0.5625" stop-color="#479CF5"></stop>
<stop offset="0.570312" stop-color="#489BF5"></stop>
<stop offset="0.578125" stop-color="#489BF6"></stop>
<stop offset="0.585938" stop-color="#489AF6"></stop>
<stop offset="0.59375" stop-color="#489AF6"></stop>
<stop offset="0.601562" stop-color="#4899F6"></stop>
<stop offset="0.609375" stop-color="#4899F6"></stop>
<stop offset="0.617188" stop-color="#4898F6"></stop>
<stop offset="0.625" stop-color="#4998F6"></stop>
<stop offset="0.632813" stop-color="#4997F7"></stop>
<stop offset="0.640625" stop-color="#4997F7"></stop>
<stop offset="0.65625" stop-color="#4996F7"></stop>
<stop offset="0.664062" stop-color="#4995F7"></stop>
<stop offset="0.671875" stop-color="#4A95F7"></stop>
<stop offset="0.679688" stop-color="#4A94F7"></stop>
<stop offset="0.6875" stop-color="#4A94F8"></stop>
<stop offset="0.695312" stop-color="#4A93F8"></stop>
<stop offset="0.703125" stop-color="#4A93F8"></stop>
<stop offset="0.710938" stop-color="#4A92F8"></stop>
<stop offset="0.71875" stop-color="#4A92F8"></stop>
<stop offset="0.726563" stop-color="#4B91F8"></stop>
<stop offset="0.734375" stop-color="#4B91F8"></stop>
<stop offset="0.742188" stop-color="#4B90F8"></stop>
<stop offset="0.75" stop-color="#4B90F9"></stop>
<stop offset="0.757812" stop-color="#4B8FF9"></stop>
<stop offset="0.765625" stop-color="#4B8FF9"></stop>
<stop offset="0.78125" stop-color="#4C8EF9"></stop>
<stop offset="0.789062" stop-color="#4C8DF9"></stop>
<stop offset="0.796875" stop-color="#4C8DF9"></stop>
<stop offset="0.804688" stop-color="#4C8CFA"></stop>
<stop offset="0.8125" stop-color="#4C8CFA"></stop>
<stop offset="0.820312" stop-color="#4D8BFA"></stop>
<stop offset="0.828125" stop-color="#4D8BFA"></stop>
<stop offset="0.835938" stop-color="#4D8AFA"></stop>
<stop offset="0.84375" stop-color="#4D8AFA"></stop>
<stop offset="0.851562" stop-color="#4D89FA"></stop>
<stop offset="0.859375" stop-color="#4D89FB"></stop>
<stop offset="0.867187" stop-color="#4D88FB"></stop>
<stop offset="0.875" stop-color="#4E88FB"></stop>
<stop offset="0.890625" stop-color="#4E87FB"></stop>
<stop offset="0.898438" stop-color="#4E86FB"></stop>
<stop offset="0.90625" stop-color="#4E86FB"></stop>
<stop offset="0.914062" stop-color="#4E85FC"></stop>
<stop offset="0.921875" stop-color="#4F85FC"></stop>
<stop offset="0.929688" stop-color="#4F84FC"></stop>
<stop offset="0.9375" stop-color="#4F84FC"></stop>
<stop offset="0.945312" stop-color="#4F83FC"></stop>
<stop offset="0.953125" stop-color="#4F83FC"></stop>
<stop offset="0.960938" stop-color="#4F82FC"></stop>
<stop offset="0.96875" stop-color="#4F82FD"></stop>
<stop offset="0.976563" stop-color="#5081FD"></stop>
<stop offset="0.984375" stop-color="#5081FD"></stop>
<stop offset="1" stop-color="#5080FD"></stop>
</linearGradient>
<linearGradient id="paint1_linear_98_1282" x1="123.709" y1="135.373" x2="115.75" y2="135.373" gradientUnits="userSpaceOnUse">
<stop stop-color="#3DBDEC"></stop>
<stop offset="0.03125" stop-color="#3DBDEC"></stop>
<stop offset="0.046875" stop-color="#3DBDEC"></stop>
<stop offset="0.0546875" stop-color="#3DBCEC"></stop>
<stop offset="0.0625" stop-color="#3DBCEC"></stop>
<stop offset="0.0703125" stop-color="#3EBBED"></stop>
<stop offset="0.078125" stop-color="#3EBBED"></stop>
<stop offset="0.0859375" stop-color="#3EBAED"></stop>
<stop offset="0.09375" stop-color="#3EBAED"></stop>
<stop offset="0.101562" stop-color="#3EB9ED"></stop>
<stop offset="0.109375" stop-color="#3EB9ED"></stop>
<stop offset="0.117188" stop-color="#3EB8ED"></stop>
<stop offset="0.125" stop-color="#3FB8ED"></stop>
<stop offset="0.132812" stop-color="#3FB7EE"></stop>
<stop offset="0.140625" stop-color="#3FB7EE"></stop>
<stop offset="0.148438" stop-color="#3FB6EE"></stop>
<stop offset="0.15625" stop-color="#3FB6EE"></stop>
<stop offset="0.171875" stop-color="#40B5EE"></stop>
<stop offset="0.179688" stop-color="#40B4EE"></stop>
<stop offset="0.1875" stop-color="#40B4EF"></stop>
<stop offset="0.195312" stop-color="#40B3EF"></stop>
<stop offset="0.203125" stop-color="#40B3EF"></stop>
<stop offset="0.210938" stop-color="#40B2EF"></stop>
<stop offset="0.21875" stop-color="#41B2EF"></stop>
<stop offset="0.226562" stop-color="#41B1EF"></stop>
<stop offset="0.234375" stop-color="#41B1EF"></stop>
<stop offset="0.242188" stop-color="#41B0F0"></stop>
<stop offset="0.25" stop-color="#41B0F0"></stop>
<stop offset="0.257812" stop-color="#41AFF0"></stop>
<stop offset="0.265625" stop-color="#41AFF0"></stop>
<stop offset="0.273437" stop-color="#42AEF0"></stop>
<stop offset="0.28125" stop-color="#42AEF0"></stop>
<stop offset="0.296875" stop-color="#42ADF0"></stop>
<stop offset="0.304688" stop-color="#42ACF1"></stop>
<stop offset="0.3125" stop-color="#42ACF1"></stop>
<stop offset="0.320312" stop-color="#43ABF1"></stop>
<stop offset="0.328125" stop-color="#43ABF1"></stop>
<stop offset="0.335937" stop-color="#43AAF1"></stop>
<stop offset="0.34375" stop-color="#43AAF1"></stop>
<stop offset="0.351562" stop-color="#43A9F2"></stop>
<stop offset="0.359375" stop-color="#43A9F2"></stop>
<stop offset="0.367187" stop-color="#43A8F2"></stop>
<stop offset="0.375" stop-color="#44A8F2"></stop>
<stop offset="0.382812" stop-color="#44A7F2"></stop>
<stop offset="0.390625" stop-color="#44A7F2"></stop>
<stop offset="0.398437" stop-color="#44A6F2"></stop>
<stop offset="0.40625" stop-color="#44A6F2"></stop>
<stop offset="0.421875" stop-color="#44A5F3"></stop>
<stop offset="0.429688" stop-color="#45A4F3"></stop>
<stop offset="0.4375" stop-color="#45A4F3"></stop>
<stop offset="0.445312" stop-color="#45A3F3"></stop>
<stop offset="0.453125" stop-color="#45A3F3"></stop>
<stop offset="0.460937" stop-color="#45A2F3"></stop>
<stop offset="0.46875" stop-color="#45A2F4"></stop>
<stop offset="0.476562" stop-color="#46A1F4"></stop>
<stop offset="0.484375" stop-color="#46A1F4"></stop>
<stop offset="0.492188" stop-color="#46A0F4"></stop>
<stop offset="0.5" stop-color="#46A0F4"></stop>
<stop offset="0.507812" stop-color="#469FF4"></stop>
<stop offset="0.515625" stop-color="#469FF4"></stop>
<stop offset="0.523438" stop-color="#479EF5"></stop>
<stop offset="0.53125" stop-color="#479EF5"></stop>
<stop offset="0.546875" stop-color="#479DF5"></stop>
<stop offset="0.554688" stop-color="#479CF5"></stop>
<stop offset="0.5625" stop-color="#479CF5"></stop>
<stop offset="0.570313" stop-color="#489BF5"></stop>
<stop offset="0.578125" stop-color="#489BF6"></stop>
<stop offset="0.585938" stop-color="#489AF6"></stop>
<stop offset="0.59375" stop-color="#489AF6"></stop>
<stop offset="0.601563" stop-color="#4899F6"></stop>
<stop offset="0.609375" stop-color="#4899F6"></stop>
<stop offset="0.617188" stop-color="#4898F6"></stop>
<stop offset="0.625" stop-color="#4998F6"></stop>
<stop offset="0.632812" stop-color="#4997F7"></stop>
<stop offset="0.640625" stop-color="#4997F7"></stop>
<stop offset="0.648437" stop-color="#4996F7"></stop>
<stop offset="0.65625" stop-color="#4996F7"></stop>
<stop offset="0.671875" stop-color="#4995F7"></stop>
<stop offset="0.679687" stop-color="#4A94F7"></stop>
<stop offset="0.6875" stop-color="#4A94F8"></stop>
<stop offset="0.695312" stop-color="#4A93F8"></stop>
<stop offset="0.703125" stop-color="#4A93F8"></stop>
<stop offset="0.710938" stop-color="#4A92F8"></stop>
<stop offset="0.71875" stop-color="#4A92F8"></stop>
<stop offset="0.726562" stop-color="#4B91F8"></stop>
<stop offset="0.734375" stop-color="#4B91F8"></stop>
<stop offset="0.742188" stop-color="#4B90F8"></stop>
<stop offset="0.75" stop-color="#4B90F9"></stop>
<stop offset="0.757812" stop-color="#4B8FF9"></stop>
<stop offset="0.765625" stop-color="#4B8FF9"></stop>
<stop offset="0.773438" stop-color="#4C8EF9"></stop>
<stop offset="0.78125" stop-color="#4C8EF9"></stop>
<stop offset="0.796875" stop-color="#4C8DF9"></stop>
<stop offset="0.804688" stop-color="#4C8CFA"></stop>
<stop offset="0.8125" stop-color="#4C8CFA"></stop>
<stop offset="0.820313" stop-color="#4D8BFA"></stop>
<stop offset="0.828125" stop-color="#4D8BFA"></stop>
<stop offset="0.835938" stop-color="#4D8AFA"></stop>
<stop offset="0.84375" stop-color="#4D8AFA"></stop>
<stop offset="0.851563" stop-color="#4D89FA"></stop>
<stop offset="0.859375" stop-color="#4D89FB"></stop>
<stop offset="0.867188" stop-color="#4D88FB"></stop>
<stop offset="0.875" stop-color="#4E88FB"></stop>
<stop offset="0.882812" stop-color="#4E87FB"></stop>
<stop offset="0.890625" stop-color="#4E87FB"></stop>
<stop offset="0.898437" stop-color="#4E86FB"></stop>
<stop offset="0.90625" stop-color="#4E86FB"></stop>
<stop offset="0.921875" stop-color="#4E85FC"></stop>
<stop offset="0.929687" stop-color="#4F84FC"></stop>
<stop offset="0.9375" stop-color="#4F84FC"></stop>
<stop offset="0.945312" stop-color="#4F83FC"></stop>
<stop offset="0.953125" stop-color="#4F83FC"></stop>
<stop offset="0.960937" stop-color="#4F82FC"></stop>
<stop offset="0.96875" stop-color="#4F82FD"></stop>
<stop offset="0.976562" stop-color="#5081FD"></stop>
<stop offset="0.984375" stop-color="#5081FD"></stop>
<stop offset="1" stop-color="#5080FD"></stop>
</linearGradient>
<clipPath id="clip0_98_1282">
<rect width="198.843" height="216.075" fill="white"></rect>
</clipPath>
</defs>
</svg>